<svg width="16" height="16" viewBox="0 0 16 16" fill="none" xmlns="http://www.w3.org/2000/svg">
<path d="M14.6746 15.8779L14.6101 15.8259L12.1719 13.5399C10.8362 14.5443 9.18852 15.088 7.49313 15.0839C6.05206 15.0517 4.65303 14.6112 3.47107 13.8176C2.2891 13.0241 1.37682 11.9127 0.848542 10.6228C0.320261 9.33286 0.199403 7.92169 0.501165 6.56602C0.802927 5.21035 1.51387 3.97045 2.54494 3.0016C3.57601 2.03276 4.88139 1.37805 6.29755 1.11947C7.71371 0.860896 9.17769 1.00994 10.5062 1.54795C11.8347 2.08596 12.9686 2.98901 13.766 4.14399C14.5633 5.29898 14.9886 6.65456 14.9886 8.04095C14.9863 9.81144 14.2794 11.5139 13.0131 12.7989L15.4231 15.0579C15.4757 15.1068 15.5176 15.165 15.5466 15.2295C15.5757 15.2939 15.5913 15.3632 15.5925 15.4335C15.5936 15.5037 15.5803 15.5734 15.5534 15.6387C15.5265 15.704 15.4865 15.7636 15.4356 15.8139L15.4231 15.8259C15.3242 15.9182 15.1947 15.974 15.0572 15.9837C14.9198 15.9934 14.7833 15.9563 14.6714 15.8789L14.6746 15.8779ZM1.15822 8.04095C1.12909 9.25302 1.47609 10.446 2.15505 11.4675C2.834 12.489 3.81407 13.2927 4.97011 13.7761C6.12614 14.2595 7.40564 14.4006 8.64543 14.1814C9.88521 13.9622 11.029 13.3926 11.9307 12.5454C12.8324 11.6982 13.4511 10.6118 13.708 9.42481C13.9648 8.23784 13.8481 7.00418 13.3726 5.88132C12.8972 4.75845 12.0848 3.79731 11.0389 3.12059C9.99294 2.44387 8.76105 2.08227 7.50049 2.08195C5.83709 2.063 4.23385 2.68001 3.04322 3.7974C1.8526 4.91478 1.17197 6.44111 1.15086 8.04095H1.15822Z" fill="white"/>
</svg>
